<svg width="80" height="80" viewBox="0 0 80 80" fill="none" xmlns="http://www.w3.org/2000/svg">
<path d="M42.8827 9.98655C41.5984 7.77271 38.401 7.77271 37.1167 9.98655L28.0697 25.5776C27.4352 26.6712 26.3383 27.4175 25.0881 27.6063L8.13375 30.1671C5.28615 30.5972 4.28728 34.1925 6.50498 36.0298L19.1353 46.4938C20.3044 47.4625 20.8541 48.9905 20.5701 50.4818L17.2662 67.8325C16.7439 70.5751 19.6232 72.7061 22.0937 71.4055L38.0584 62.9991C39.2734 62.3595 40.7257 62.3595 41.941 62.9991L57.9057 71.4055C60.376 72.7061 63.2554 70.5751 62.733 67.8325L59.4294 50.4818C59.1454 48.9905 59.695 47.4625 60.864 46.4938L73.4944 36.0298C75.712 34.1925 74.7134 30.5972 71.8657 30.1671L54.9114 27.6063C53.661 27.4175 52.5644 26.6712 51.9297 25.5776L42.8827 9.98655Z" fill="#158FFF"/>
<path opacity="0.56" d="M42.8827 9.9885C41.5984 7.77467 38.401 7.77467 37.1167 9.9885L28.0697 25.5795C27.4352 26.6731 26.3383 27.4195 25.0881 27.6083L8.13375 30.169C5.28615 30.5991 4.28728 34.1944 6.50498 36.0318L19.1353 46.4958C20.3044 47.4644 20.8541 48.9924 20.5701 50.4838L17.2662 67.8344C16.7439 70.5771 19.6232 72.7081 22.0937 71.4074L38.0584 63.0011C39.2734 62.3614 40.7257 62.3614 41.941 63.0011L57.9057 71.4074C60.376 72.7081 63.2554 70.5771 62.733 67.8344L59.4294 50.4838C59.1454 48.9924 59.695 47.4644 60.864 46.4958L73.4944 36.0318C75.712 34.1944 74.7134 30.5991 71.8657 30.169L54.9114 27.6083C53.661 27.4195 52.5644 26.6731 51.9297 25.5795L42.8827 9.9885Z" fill="#158FFF"/>
</svg>
