<svg width="1152" height="194" viewBox="0 0 1152 194" fill="none" xmlns="http://www.w3.org/2000/svg">
<path d="M485.21 336.06C483.78 336.12 482.95 336.059 477.43 335.949C426.84 332.419 380.97 314.36 335 293.83C282.92 270.7 219.12 237.92 161.85 216C102.49 193 74.9501 196.4 53.2701 195.13C42.4301 194.47 13.0001 190.81 -10.0299 192.28C-11.3499 192.28 -12.6799 192.419 -14.0299 192.539C-20.6536 193.006 -27.2406 193.898 -33.7499 195.21C-51.9499 198.72 -69.2899 207.21 -87.2499 208.89C-109.02 210.89 -127.2 201.01 -145.92 189.52C-132.48 198.21 -118.76 206.52 -103.04 209.37C-78.2099 213.88 -59.7799 202.11 -29.4499 196.81C-17.7884 195.073 -5.99294 194.404 5.7901 194.81C25.6501 195.38 43.6501 197.809 53.0201 198.479C71.3101 199.749 80.1001 198.629 100.02 202.349C131.96 208.349 161.76 219.209 218.24 244.969C317.1 289.659 389.02 332.05 469.18 340.03C508.25 343.67 541.75 331.099 575.85 312.349C658.46 267.179 724.48 206.049 795.85 189.549C723.63 204.459 654.97 265.889 574.04 308.979C545.7 324.139 517.15 335.54 485.21 336.06Z" fill="url(#paint0_linear_1616_1101)"/>
<path d="M547 302.511C508.28 317.801 475.34 322.971 391.75 288.771C371.81 280.541 352.39 271.051 333.23 261.051C279.11 232.921 217.04 194.471 160.61 170.251C150.61 165.971 140.5 161.971 130.14 158.451C94.4499 146.741 62.7799 146.561 33.4199 144.991C22.5557 144.315 11.6628 144.235 0.789886 144.751C-42.8001 147.341 -65.8101 168.821 -91.1501 176.101C-114.75 183.221 -137.32 173.101 -153.62 166.191C-136.98 173.671 -119.62 181.701 -98.8201 179.011C-69.9301 175.011 -46.3701 149.851 0.93988 147.561C11.7157 147.164 22.5052 147.358 33.2599 148.141C61.9299 149.981 93.6299 150.471 128.81 162.431C192.56 184.661 265.91 231.561 330.93 265.491C350.19 275.491 369.76 285.011 389.93 293.281C428.45 308.951 472.67 324 513.24 317.07C537.39 312.28 556.38 303.941 578.03 292.071C658.75 247.871 721.33 182.401 803.6 166.161C729.6 178.981 669.6 232.871 604.23 272.481C587.54 282.661 567.32 294.481 547 302.511Z" fill="url(#paint1_linear_1616_1101)"/>
<path d="M418.62 272.471C387.97 259.581 358.47 243.211 330.31 225.771C311.31 214.121 292.69 201.931 273.96 189.771C255.23 177.611 236.38 165.651 217.2 154.181C182.2 133.261 134.96 107.821 94.8999 99.5008C83.2399 97.0308 73.7399 96.5608 61.2799 96.5008C55.6799 96.5008 50.1099 96.5008 44.5699 96.4208C30.5199 96.1208 12.8799 95.7808 -5.75012 99.0408C-68.2401 110.041 -77.8101 152.711 -127.42 149.041C-138.52 148.241 -149.42 145.381 -160.12 142.461C-143.72 147.321 -127.57 151.861 -110.7 149.461C-83.2901 145.731 -67.1801 124.701 -36.9501 111.071C-8.38013 98.1308 22.8499 99.0708 44.4899 99.7008C75.9199 100.601 94.0699 96.5608 156.31 126.131C176.31 135.731 195.72 146.651 214.76 158.131C233.8 169.611 252.62 181.591 271.3 193.761C289.98 205.931 308.66 218.161 327.69 229.881C346.72 241.601 366.16 252.731 386.19 262.771C410.7 274.771 442.07 288.501 468.71 293.931C472.41 294.671 477.64 295.661 481.25 296.051C511.14 300.051 531.79 292.551 539.93 290.001C541 289.651 546.44 287.681 547.87 287.071C558.288 282.85 568.423 277.96 578.21 272.431C668.21 222.171 733.73 154.931 810.12 142.431C732.91 153.321 665.86 220.311 576.37 269.111C520.16 299.821 484.82 300.551 418.62 272.471Z" fill="url(#paint2_linear_1616_1101)"/>
<path d="M445.41 257.79C424.285 249.022 403.825 238.731 384.19 227C364.5 215.3 345.49 202.46 326.81 189.14C270.17 148.8 188.35 81.6702 123.92 58.5802C117.081 56.1059 110.094 54.0619 103 52.4602C101.58 52.1502 100.18 51.7802 98.75 51.5302C95.89 50.9902 93.05 50.3902 90.18 49.9902C67.75 46.4002 43.58 46.5002 20.96 48.4202C9.38019 49.3721 -2.05349 51.6401 -13.12 55.1802C-71.74 73.8802 -81.98 120.43 -131.25 121.81C-142.71 122.16 -154.14 120.29 -165.48 118.57C-140.18 122.97 -120.48 126.42 -98.04 113.71C-78.21 102.53 -65.26 85.5101 -43.21 72.1001C-23.93 60.4401 -3.88997 53.4702 21.22 51.5702C43.67 49.8802 67.54 50.0302 89.55 53.7802C92.37 54.2102 95.15 54.8302 97.94 55.3802C102.23 56.1702 110.76 58.6102 112.4 59.0702C180.33 80.8802 255.4 144.19 323.91 193.16C342.68 206.5 361.83 219.39 381.7 231.16C384.16 232.67 386.7 234.07 389.2 235.49L396.74 239.75C399.27 241.14 401.84 242.46 404.39 243.81C406.94 245.16 409.48 246.55 412.08 247.81L419.88 251.6L423.78 253.5C504.78 290.85 539.23 283.5 635.78 216.69C705.47 168.41 756.33 126.27 815.43 118.59C755.43 125.06 702.3 167.83 634 214.1C547 273 511.14 284.54 445.41 257.79Z" fill="url(#paint3_linear_1616_1101)"/>
<path d="M633.53 194.121C623.797 200.888 613.95 207.461 603.99 213.841C541.56 253.841 504.3 263.291 439.99 230.841C419.036 219.96 398.874 207.619 379.65 193.911C377.24 192.211 374.81 190.531 372.41 188.791L365.27 183.541L361.7 180.921L358.17 178.231L351.11 172.861C341.777 165.601 332.52 158.224 323.34 150.731C246.53 88.1909 159.11 7.0009 85.0501 -0.949103C66.4601 -2.9491 38.9401 -1.5291 22.5001 0.740899C19.5001 1.0809 16.5901 1.74092 13.6401 2.26092C-9.97016 6.96753 -32.0169 17.5386 -50.4699 33.0009C-78.8099 55.5209 -91.9699 89.4709 -134.19 94.7109C-145.93 96.1909 -157.85 95.3909 -169.65 94.4209C-151.52 96.2909 -133.8 97.6709 -116.65 91.6009C-84.9999 80.4809 -69.9999 47.6509 -38.2999 27.0009C-31.8199 22.8209 -34.0999 24.2109 -27.0199 20.1109C-6.9299 9.3609 10.8301 4.90091 31.7001 3.00091C48.0801 1.69091 68.3201 1.00091 84.6201 2.88091C156.02 10.8809 243.42 91.9509 320.19 154.561C329.397 162.081 338.7 169.471 348.1 176.731L355.2 182.121L358.75 184.821L362.35 187.451L369.55 192.721C371.96 194.461 374.42 196.151 376.84 197.871C410.84 221.681 437.63 235.721 454.17 242.521C458.25 244.291 466.94 247.521 471.08 248.681C476.828 250.491 482.687 251.927 488.62 252.981C494.562 254.061 500.582 254.663 506.62 254.781C512.674 254.899 518.728 254.488 524.71 253.551C525.88 253.401 532.47 252.131 533.6 251.821C536.52 251.081 539.46 250.391 542.31 249.431C552.65 246.371 565.92 240.431 575.31 235.261C663.52 186.131 738.95 104.151 815.22 94.9309L819.64 94.4009L815.21 94.8409C756.13 100.731 697 150.061 633.53 194.121Z" fill="url(#paint4_linear_1616_1101)"/>
<path d="M601.52 194.999C591.33 201.62 580.81 207.718 570 213.269C559.14 218.659 547.89 223.319 536.2 226.189C533.26 226.809 530.35 227.599 527.37 227.979C524.425 228.522 521.449 228.88 518.46 229.049C516.973 229.224 515.476 229.297 513.98 229.269C510.984 229.405 507.982 229.315 505 228.999C503.509 228.93 502.024 228.78 500.55 228.549C494.617 227.679 488.752 226.393 483 224.699C462.23 218.459 449.74 211.439 441.33 206.979C416.72 192.999 396.81 178.499 374 159.999C355 144.669 336.8 128.399 318.89 111.759C269.43 65.5792 203.24 0.269239 149.11 -28.5508C136.924 -35.2916 124.085 -40.7765 110.79 -44.9208C104.826 -46.6313 98.7607 -47.9673 92.6299 -48.9208C78.6799 -51.2708 61.1899 -51.9808 41.8199 -49.9808C39.9399 -49.8208 38.7399 -49.6408 32.6399 -48.8208C23.486 -47.4283 14.4357 -45.4238 5.54987 -42.8208C-6.72013 -39.0008 -10.6501 -37.0008 -20.0001 -32.0008C-21.0001 -31.4508 -26.3201 -28.1708 -27.8501 -27.0008C-33.4601 -23.0708 -31.0801 -24.7708 -35.3101 -21.5008C-52.6501 -7.93077 -67.3101 11.2992 -78.6201 26.1192C-106.62 62.7792 -126.34 71.9192 -172.62 70.0392C-145.4 71.6992 -123.92 70.3892 -102.62 53.8892C-76.7301 33.7992 -63.4701 0.889244 -26.3401 -24.6708C-24.8701 -25.7408 -19.6301 -28.9008 -18.6301 -29.4408C-9.41013 -34.2808 -5.63013 -36.1207 6.36987 -39.8507C12.9561 -41.7014 19.6312 -43.22 26.3699 -44.4008C55.7499 -49.0308 80.8399 -48.8808 109.58 -40.9408C178.94 -18.0008 238.74 44.3292 315.49 115.429C333.49 132.069 351.8 148.429 370.89 163.829C380.4 171.599 390.22 178.989 400.15 186.229C410.08 193.469 420.34 200.229 430.99 206.509C441.624 212.811 452.707 218.323 464.15 222.999C475.667 227.706 487.701 231.033 500 232.909C501.551 233.141 503.113 233.288 504.68 233.349C507.8 233.656 510.939 233.729 514.07 233.569C515.634 233.589 517.197 233.506 518.75 233.319C521.868 233.129 524.971 232.741 528.04 232.159C531.14 231.749 534.14 230.909 537.18 230.239C567.4 222.509 600.44 201.119 633.69 176.959C705.48 124.769 758.92 74.8293 822.69 70.0293C758.43 73.5393 703.08 123.709 631.89 174.399C621.88 181.499 611.81 188.399 601.52 194.999Z" fill="url(#paint5_linear_1616_1101)"/>
<path d="M720.06 86.8497C709.58 93.9297 699.32 101.31 689.19 108.85C668.94 123.97 649.19 139.67 628.8 154.52C609.36 168.67 586.16 184.52 565.04 194.52C542.04 205.38 517.75 211.15 492.92 205.79C488.384 204.796 483.923 203.486 479.57 201.87C459.87 194.87 442.94 185.31 425.87 173.5C415.57 166.38 405.67 158.63 396.04 150.56C391.21 146.56 386.48 142.4 381.76 138.24L374.76 131.9C372.44 129.78 370.09 127.69 367.82 125.51C349.43 108.32 331.82 90.3197 314.36 72.0897C279.46 35.6897 245.24 -1.6903 206.84 -34.8103C187.7 -51.3503 167.61 -67.1103 145.29 -79.5003C134.109 -85.7149 122.308 -90.7423 110.08 -94.5003C78.4901 -103.87 35.0301 -102.39 -2.47993 -86.8103C-8.36157 -84.3211 -14.0621 -81.4241 -19.5399 -78.1403C-35.9899 -68.5803 -49.1599 -53.5203 -59.8699 -37.9803C-78.6799 -10.8503 -85.3299 6.23972 -104.29 22.7697C-124.17 39.9997 -147.91 45.6097 -174.42 45.4697C-147.75 46.1397 -123.95 41.0197 -103.42 23.7797C-84.8199 8.45973 -74.8399 -12.8403 -57.8499 -36.5703C-36.0499 -67.7603 -17.8499 -75.7903 -9.78993 -80.0503C-8.78993 -80.5803 -2.31992 -83.5103 -1.24992 -83.8903C35.7501 -98.8903 78.4301 -99.8203 108.89 -90.4803C144.17 -79.7003 175.51 -55.9203 203.75 -31.2703C241.75 1.72968 275.87 38.9897 310.75 75.4997C328.24 93.7297 345.97 111.78 364.49 129.04C366.78 131.23 369.15 133.33 371.49 135.46L378.49 141.83C383.24 146.01 388.01 150.17 392.89 154.22C402.62 162.35 412.63 170.22 423.13 177.35C433.588 184.624 444.571 191.112 455.99 196.76C463.137 200.317 470.506 203.41 478.05 206.02C482.586 207.67 487.231 209.006 491.95 210.02C530.82 218.21 566.54 200.58 599.57 178.84C610.14 171.84 620.45 164.52 630.57 156.99C650.86 141.9 670.52 126.05 690.57 110.73C705.95 98.9197 720.67 88.1997 736.73 77.8097C742.63 74.1697 737.73 77.0097 748.82 70.4197C760.31 63.9497 771.6 57.9097 787.31 52.5997C788.73 52.0697 795.31 50.1197 796.31 49.8497C799.5 49.0997 803.17 47.9997 810.16 46.8497C810.77 46.7697 816.59 45.9897 817.16 45.9297L824.24 45.4297C798.46 46.1697 774.89 54.5897 752.24 66.9097C741.174 72.9921 730.433 79.6478 720.06 86.8497V86.8497Z" fill="url(#paint6_linear_1616_1101)"/>
<path d="M-25.36 -115.8C-22.85 -117.8 -20.16 -119.59 -17.52 -121.43C-11.52 -125.09 -11.64 -125.3 -0.62001 -130.73C5.25017 -133.379 11.2862 -135.644 17.45 -137.51C23.6246 -139.343 29.9065 -140.793 36.26 -141.85C42.6162 -142.886 49.0268 -143.553 55.46 -143.85C63.5065 -144.203 71.5681 -143.966 79.58 -143.14C100.431 -141.109 120.682 -135.015 139.19 -125.2C161.43 -113.08 182.58 -95.8704 200.88 -78.5204C237.64 -43.6804 275.19 1.47964 305.77 36.9496C322.83 56.6496 339.96 76.3296 357.98 95.2596C376 114.19 394.98 132.32 415.48 148.58C448.14 174.71 467.16 181.82 474.04 184.72C475.57 185.36 477.15 185.86 478.71 186.43C486.557 189.244 494.711 191.114 503 192C506.33 192.15 509.67 192.52 513 192.36C513.83 192.36 514.67 192.36 515.5 192.3C517.997 192.187 520.487 191.947 522.96 191.58C548.57 188.13 573.08 174.14 594.69 159.98C605.62 152.79 616.19 145.09 626.56 137.17C636.93 129.25 647.1 121.09 657.26 112.94C667.42 104.79 677.56 96.5796 687.66 88.3696C727.93 55.7096 773.17 21.7096 825.04 20.9496C772.91 20.7096 727.1 54.2097 686.13 86.4597L670.84 98.6396L655.52 110.74C645.28 118.81 635.05 126.86 624.66 134.67C614.27 142.48 603.66 150.03 592.79 157.06C569.79 171.82 544.59 185.82 517.68 187.91C510.03 188.43 508.26 187.97 503.42 187.73C501.84 187.54 500.27 187.28 498.7 187.06C497.119 186.878 495.552 186.587 494.01 186.19C490.876 185.58 487.784 184.775 484.75 183.78C482.89 183.29 476.75 181.01 475.75 180.59C466.813 176.954 458.205 172.557 450.02 167.45C439.054 160.587 428.53 153.042 418.51 144.86C398.341 128.523 379.322 110.814 361.59 91.8596C343.71 73.0196 326.65 53.3496 309.59 33.6396C279.59 -1.17035 239.88 -48.5504 204.16 -82.0104C185 -99.8304 164.46 -116.44 141.27 -129C117.92 -141.48 91.48 -147.59 65.16 -147.75C61.86 -147.83 58.57 -147.64 55.28 -147.54C48.7033 -147.182 42.1526 -146.448 35.66 -145.34C29.1699 -144.191 22.755 -142.651 16.45 -140.73C4.5 -136.73 4.81997 -136.58 -1.98003 -133.62C-13.05 -128.06 -13.06 -127.78 -19.21 -123.94C-29.14 -116.94 -29.59 -116.21 -34.73 -111.71C-43.17 -103.43 -46.28 -99.9204 -53.73 -89.0804C-68.51 -66.8104 -77.39 -41.9304 -91.73 -20.7804C-111.73 8.3796 -139.82 20.4596 -175.02 21.0396C-71.83 21.2696 -82.67 -73.7804 -25.36 -115.8Z" fill="url(#paint7_linear_1616_1101)"/>
<path d="M-143.68 -8.95068C-137.07 -11.2107 -138.32 -10.7607 -136.87 -11.3707C-128.49 -14.9107 -132.81 -13.0907 -128.1 -15.3707C-125.18 -16.7307 -122.49 -18.5207 -119.71 -20.1407C-118.37 -21.0307 -117.06 -21.9707 -115.71 -22.8807C-114.364 -23.7705 -113.072 -24.7389 -111.84 -25.7807C-109.275 -27.7311 -106.827 -29.8314 -104.51 -32.0707C-103.19 -33.2107 -98.6001 -37.9607 -97.7401 -38.9607C-91.3098 -46.187 -85.615 -54.0357 -80.7401 -62.3907C-67.9501 -84.0907 -55.4102 -108.781 -39.3902 -126.751C-35.2121 -131.512 -30.6935 -135.964 -25.8701 -140.071C-22.2197 -143.098 -18.393 -145.906 -14.4102 -148.481C-13.0802 -149.321 -11.6901 -150.081 -10.3301 -150.891C32.9899 -175.661 90.4198 -178.371 135.54 -155.171C146.9 -149.476 157.797 -142.899 168.13 -135.501C178.492 -128.112 188.462 -120.188 198 -111.761C207.58 -103.351 216.86 -94.5707 225.94 -85.5807C277.33 -34.6407 310.72 9.1493 356.72 55.2193C374.87 73.4093 393.9 90.8293 414.41 106.439C416.92 108.439 419.56 110.309 422.19 112.179L430.05 117.809C505.42 169.809 547.59 157.599 624.5 103.609C645.5 88.8993 665.9 73.3193 686.68 58.3593C697.04 50.8493 707.54 43.5193 718.27 36.5493C723.603 33.056 729.03 29.6693 734.55 26.3893C740.07 23.1093 745.643 19.9793 751.27 16.9993C762.552 10.9747 774.374 6.01976 786.58 2.19934C798.81 -1.66038 811.565 -3.6034 824.39 -3.56067C785.22 -4.31067 746.84 13.1293 685.26 56.3693C637.26 90.1093 594.79 124.369 556.4 138.729C552.86 140.089 548.4 141.559 547.4 141.869C541.406 143.809 535.266 145.267 529.04 146.229C527.48 146.419 525.92 146.539 524.37 146.699C522.818 146.894 521.254 146.984 519.69 146.969C516.559 147.113 513.422 147.047 510.3 146.769C508.3 146.769 501.97 145.869 500.97 145.659C497.87 145.155 494.799 144.488 491.77 143.659C482.87 141.589 466.62 135.469 448.61 124.439C443.17 121.169 437.87 117.649 432.61 114.009L425 108.399C422.41 106.539 419.81 104.699 417.34 102.689C397.197 87.0057 378.122 69.9981 360.24 51.7794C316.17 7.54936 281 -38.0007 229.36 -89.0007C220.21 -98.0007 210.87 -106.871 201.13 -115.311C191.421 -123.802 181.278 -131.783 170.74 -139.221C160.186 -146.697 149.066 -153.341 137.48 -159.091C128.773 -163.484 119.652 -167.001 110.25 -169.591C67.9198 -180.971 22.7098 -173.821 -11.9402 -153.591C-16.5302 -150.791 -13.6202 -152.811 -22.1002 -146.891C-35.5802 -136.101 -44.4901 -127.231 -58.5801 -105.111C-65.3201 -94.6607 -75.1502 -76.0007 -82.3802 -63.3107C-89.2502 -51.7407 -91.8002 -48.4406 -98.8502 -39.9106C-99.6902 -38.9106 -104.18 -34.1207 -105.44 -33.0007C-108.286 -30.2123 -111.291 -27.5912 -114.44 -25.1507C-121.74 -19.5893 -129.743 -15.0164 -138.24 -11.5507L-145 -9.12067C-153 -6.80067 -151.48 -7.21066 -153.08 -6.86066C-160.086 -5.16701 -167.22 -4.06316 -174.41 -3.56067C-166.798 -3.95258 -159.234 -4.9964 -151.8 -6.68066C-143.89 -8.79066 -144.82 -8.56068 -143.68 -8.95068Z" fill="url(#paint8_linear_1616_1101)"/>
<path d="M60.2899 -196.171C101.88 -200.321 132.29 -189.171 166.07 -167.501C171.297 -164.081 176.44 -160.524 181.5 -156.831C186.5 -153.101 191.5 -149.291 196.35 -145.321C206.08 -137.421 215.52 -129.141 224.77 -120.631C229.39 -116.381 233.95 -112.051 238.51 -107.741C290.35 -57.0508 316.51 -25.8808 357.35 13.9092C375.336 31.6946 394.245 48.5212 414 64.3192C434.16 80.1192 455.55 94.2592 479.32 103.169C480.79 103.789 482.32 104.219 483.84 104.749C489.01 106.419 485.58 105.459 493.03 107.499C494.565 107.96 496.124 108.338 497.7 108.629C500.821 109.403 503.992 109.961 507.19 110.299C512.05 110.849 507.42 110.619 516.83 111.019C518.44 111.081 520.052 111.058 521.66 110.949C523.27 110.869 524.88 110.879 526.48 110.719C531.276 110.307 536.042 109.595 540.75 108.589C553.13 105.589 565.68 102.119 589.47 89.4892C620.12 73.1292 657.47 46.7692 685.19 28.4892C695.68 21.4892 706.27 14.7192 717.07 8.26921C749.64 -11.2408 784.94 -28.9908 822.64 -28.0308C779.25 -30.0308 736.64 -7.5008 683.86 26.4492C638.86 55.4492 592.65 88.8292 553.44 101.169C550.44 102.019 547.5 103.019 544.44 103.659C540.686 104.616 536.884 105.37 533.05 105.919C532.51 105.999 526.68 106.599 526.14 106.659C524.6 106.799 523.06 106.769 521.52 106.839C519.981 106.919 518.439 106.919 516.9 106.839C513.828 106.77 510.762 106.519 507.72 106.089C502.72 105.329 506.8 106.209 496.35 103.949L489.63 102.079C488.63 101.779 481.94 99.5392 480.82 99.0792C457.56 90.2292 436.58 76.1792 416.91 60.6092C397.343 44.8552 378.602 28.103 360.76 10.4192C321.22 -28.2508 294.06 -60.3708 241.86 -111.251C237.26 -115.581 232.67 -119.921 228.02 -124.191C218.7 -132.721 209.19 -141.081 199.31 -149.011C194.39 -153.011 189.31 -156.821 184.23 -160.581C144.46 -189.431 108.23 -205.251 59.8899 -200.001C-56.9401 -186.561 -59.7001 -101.631 -104.93 -58.0608C-123.19 -40.3208 -147.4 -31.4008 -172.64 -28.0608C-147.13 -30.9408 -122.85 -39.3608 -104.02 -57.1208C-57.2201 -100.841 -54.7001 -184.001 60.2899 -196.171Z" fill="url(#paint9_linear_1616_1101)"/>
<path d="M-21.8201 -183.089C-19.4901 -185.089 -17.2301 -187.089 -14.8201 -188.979C-13.6101 -189.919 -12.4401 -190.899 -11.2001 -191.799C-4.79009 -196.409 -6.84007 -194.959 -3.68007 -197.029C3.97078 -202.064 12.1206 -206.296 20.6399 -209.659C39.1757 -216.955 58.7532 -221.259 78.6399 -222.409C81.6399 -222.509 84.73 -222.669 87.78 -222.589C96.9199 -222.545 106.035 -221.627 115 -219.849C118 -219.269 116.45 -219.619 123.86 -217.759C164.44 -205.259 194.36 -181.819 225.12 -156.099C227.49 -154.099 229.78 -152.099 232.12 -150.099C234.46 -148.099 236.76 -146.099 239.05 -143.999C243.6 -139.849 248.23 -135.779 252.7 -131.539C303.71 -83.9991 360.35 -20.6291 414.31 21.2509C433.88 36.4809 454.87 50.2509 477.89 60.0509C506.09 71.9609 526.48 72.9209 551.49 66.7609C592.02 56.5809 639.7 24.7609 683.15 -1.33914C725.35 -26.6991 772.1 -55.0391 819.65 -52.4191C782.47 -55.2191 746.89 -39.2991 714.23 -21.6291C635.29 21.3709 569.69 72.6109 514.53 65.8909C480.69 62.0009 444 38.5609 417.22 17.5309C360.7 -27.0891 310.75 -84.3291 256 -135.099C251.5 -139.349 246.84 -143.429 242.27 -147.599C239.96 -149.669 237.6 -151.679 235.27 -153.719C232.94 -155.759 230.63 -157.819 228.27 -159.779C223.51 -163.779 218.79 -167.779 213.94 -171.629C209.09 -175.479 204.18 -179.289 199.19 -182.989C189.2 -190.41 178.786 -197.241 168 -203.449C157.163 -209.684 145.783 -214.922 134 -219.099C97.0999 -232.199 55.4699 -227.209 19.4199 -212.869C12.1836 -209.912 5.20329 -206.363 -1.45009 -202.259C-2.79009 -201.449 -4.06007 -200.549 -5.37007 -199.699C-11.8595 -195.372 -18.0136 -190.561 -23.7801 -185.309C-63.2601 -148.759 -72.7101 -111.689 -103.58 -83.4091C-122.05 -66.4091 -145.17 -57.1791 -169.58 -52.4091C-78.3101 -68.2991 -78.9501 -131.179 -21.8201 -183.089Z" fill="url(#paint10_linear_1616_1101)"/>
<path d="M-24.1002 -196.36C-19.8404 -200.553 -15.3501 -204.506 -10.6502 -208.2C-8.26021 -210 -5.92022 -211.85 -3.44022 -213.52C16.2904 -227.132 38.6372 -236.49 62.1798 -241C103.02 -249 137.87 -245.49 174.71 -225.58C187.41 -218.68 184.35 -220.41 190.36 -216.76C210.59 -204.46 229.07 -191.7 255.58 -168.89C273.8 -153.2 291.22 -136.57 308.48 -119.74C367.48 -62.3598 422.48 -5.16983 485.24 20.4902C488.054 21.7039 490.928 22.7752 493.85 23.7002C495.289 24.2368 496.758 24.6909 498.25 25.0602C501.204 25.965 504.21 26.6963 507.25 27.2502C561.47 38.4702 615.41 4.35021 680.41 -31.4098C731.93 -59.9198 773.56 -79.7398 815.53 -76.5998C803.481 -77.6834 791.34 -77.0742 779.46 -74.7898C693.81 -58.1998 595.26 33.3302 521.25 25.0302C508.25 23.7402 498.25 21.8402 478.71 12.9202C422.4 -12.8698 370.42 -66.2698 312 -123.31C294.7 -140.15 277.16 -156.82 258.79 -172.58C240.42 -188.34 221.21 -203.26 200.59 -216.09C185.59 -225.09 190.39 -222.43 172.85 -231.79C164.658 -235.912 156.151 -239.376 147.41 -242.15C118.84 -251.37 90.7698 -250.81 61.4098 -244.76C37.5898 -239.81 14.5798 -230.28 -5.25021 -216.1C-7.76021 -214.37 -10.1402 -212.46 -12.5502 -210.61C-24.9402 -200.25 -34.3502 -191.61 -55.0102 -163.38C-62.1102 -153.62 -69.0102 -143.76 -76.5102 -134.38C-80.6802 -129.02 -85.9702 -122.93 -88.2002 -120.67C-92.3021 -116.288 -96.674 -112.166 -101.29 -108.33C-119.7 -92.8398 -142.07 -82.3898 -165.47 -76.6398C-82.1502 -96.2098 -71.1502 -148.56 -24.1002 -196.36Z" fill="url(#paint11_linear_1616_1101)"/>
<path d="M557.47 -152.121C567.204 -158.888 577.05 -165.461 587.01 -171.841C649.44 -211.841 686.7 -221.291 751.01 -188.841C771.964 -177.96 792.127 -165.619 811.35 -151.911C813.76 -150.211 816.19 -148.531 818.59 -146.791L825.73 -141.541L829.3 -138.921L832.83 -136.231L839.89 -130.861C849.224 -123.601 858.48 -116.224 867.66 -108.731C944.47 -46.1909 1031.89 34.9991 1105.95 42.9491C1124.54 44.9491 1152.06 43.5291 1168.5 41.2591C1171.5 40.9191 1174.41 40.2591 1177.36 39.7391C1200.97 35.0325 1223.02 24.4613 1241.47 8.99908C1269.81 -13.5209 1282.97 -47.4709 1325.19 -52.7109C1336.93 -54.1909 1348.85 -53.3909 1360.65 -52.4209C1342.52 -54.2909 1324.8 -55.6709 1307.65 -49.6009C1276 -38.4809 1261 -5.65092 1229.3 14.9991C1222.82 19.1791 1225.1 17.7891 1218.02 21.8891C1197.93 32.6391 1180.17 37.0991 1159.3 38.9991C1142.92 40.3091 1122.68 40.9991 1106.38 39.1191C1034.98 31.1191 947.58 -49.9509 870.81 -112.561C861.604 -120.081 852.3 -127.471 842.9 -134.731L835.8 -140.121L832.25 -142.821L828.65 -145.451L821.45 -150.721C819.04 -152.461 816.58 -154.151 814.16 -155.871C780.16 -179.681 753.37 -193.721 736.83 -200.521C732.75 -202.291 724.06 -205.521 719.92 -206.681C714.173 -208.491 708.314 -209.927 702.38 -210.981C696.438 -212.061 690.419 -212.663 684.38 -212.781C678.326 -212.899 672.273 -212.488 666.29 -211.551C665.12 -211.401 658.53 -210.131 657.4 -209.821C654.48 -209.081 651.54 -208.391 648.69 -207.431C638.35 -204.371 625.08 -198.431 615.69 -193.261C527.48 -144.131 452.05 -62.151 375.78 -52.931L371.36 -52.401L375.79 -52.841C434.87 -58.731 494 -108.061 557.47 -152.121Z" fill="url(#paint12_linear_1616_1101)"/>
<path d="M589.48 -152.999C599.67 -159.62 610.19 -165.718 621 -171.269C631.86 -176.659 643.11 -181.319 654.8 -184.189C657.74 -184.809 660.65 -185.599 663.63 -185.979C666.575 -186.522 669.551 -186.88 672.54 -187.049C674.027 -187.224 675.524 -187.297 677.02 -187.269C680.016 -187.405 683.018 -187.315 686 -186.999C687.491 -186.93 688.976 -186.78 690.45 -186.549C696.383 -185.679 702.248 -184.393 708 -182.699C728.77 -176.459 741.26 -169.439 749.67 -164.979C774.28 -150.999 794.19 -136.499 817 -117.999C836 -102.669 854.2 -86.3993 872.11 -69.7593C921.57 -23.5793 987.76 41.7307 1041.89 70.5507C1054.08 77.2916 1066.92 82.7764 1080.21 86.9207C1086.17 88.6313 1092.24 89.9672 1098.37 90.9207C1112.32 93.2707 1129.81 93.9807 1149.18 91.9807C1151.06 91.8207 1152.26 91.6408 1158.36 90.8208C1167.51 89.4283 1176.56 87.4238 1185.45 84.8208C1197.72 81.0008 1201.65 79.0008 1211 74.0008C1212 73.4508 1217.32 70.1708 1218.85 69.0008C1224.46 65.0708 1222.08 66.7708 1226.31 63.5008C1243.65 49.9308 1258.31 30.7008 1269.62 15.8808C1297.62 -20.7792 1317.34 -29.9192 1363.62 -28.0392C1336.4 -29.6992 1314.92 -28.3892 1293.62 -11.8893C1267.73 8.20075 1254.47 41.1107 1217.34 66.6707C1215.87 67.7407 1210.63 70.9008 1209.63 71.4408C1200.41 76.2808 1196.63 78.1207 1184.63 81.8507C1178.04 83.7014 1171.37 85.22 1164.63 86.4008C1135.25 91.0308 1110.16 90.8808 1081.42 82.9408C1012.06 60.0007 952.26 -2.32925 875.51 -73.4293C857.51 -90.0693 839.2 -106.429 820.11 -121.829C810.6 -129.599 800.78 -136.989 790.85 -144.229C780.92 -151.469 770.66 -158.229 760.01 -164.509C749.376 -170.811 738.293 -176.323 726.85 -180.999C715.333 -185.706 703.299 -189.033 691 -190.909C689.449 -191.141 687.887 -191.288 686.32 -191.349C683.2 -191.656 680.061 -191.729 676.93 -191.569C675.366 -191.589 673.803 -191.506 672.25 -191.319C669.132 -191.129 666.029 -190.741 662.96 -190.159C659.86 -189.749 656.86 -188.909 653.82 -188.239C623.6 -180.509 590.56 -159.119 557.31 -134.959C485.52 -82.7693 432.08 -32.8293 368.31 -28.0293C432.57 -31.5393 487.92 -81.7093 559.11 -132.399C569.12 -139.499 579.19 -146.399 589.48 -152.999Z" fill="url(#paint13_linear_1616_1101)"/>
<path d="M470.94 -44.8498C481.42 -51.9298 491.68 -59.3098 501.81 -66.8498C522.06 -81.9698 541.81 -97.6698 562.2 -112.52C581.64 -126.67 604.84 -142.52 625.96 -152.52C648.96 -163.38 673.25 -169.15 698.08 -163.79C702.616 -162.796 707.077 -161.486 711.43 -159.87C731.13 -152.87 748.06 -143.31 765.13 -131.5C775.43 -124.38 785.33 -116.63 794.96 -108.56C799.79 -104.56 804.52 -100.4 809.24 -96.2397L816.24 -89.8998C818.56 -87.7798 820.91 -85.6898 823.18 -83.5098C841.57 -66.3198 859.18 -48.3198 876.64 -30.0898C911.54 6.31023 945.76 43.6903 984.16 76.8103C1003.3 93.3503 1023.39 109.11 1045.71 121.5C1056.89 127.715 1068.69 132.742 1080.92 136.5C1112.51 145.87 1155.97 144.39 1193.48 128.81C1199.36 126.321 1205.06 123.424 1210.54 120.14C1226.99 110.58 1240.16 95.5203 1250.87 79.9803C1269.68 52.8503 1276.33 35.7603 1295.29 19.2303C1315.17 2.00027 1338.91 -3.60968 1365.42 -3.46968C1338.75 -4.13968 1314.95 0.980266 1294.42 18.2203C1275.82 33.5403 1265.84 54.8403 1248.85 78.5703C1227.05 109.76 1208.85 117.79 1200.79 122.05C1199.79 122.58 1193.32 125.51 1192.25 125.89C1155.25 140.89 1112.57 141.82 1082.11 132.48C1046.83 121.7 1015.49 97.9203 987.25 73.2703C949.25 40.2703 915.13 3.01025 880.25 -33.4998C862.76 -51.7297 845.03 -69.7797 826.51 -87.0397C824.22 -89.2297 821.85 -91.3298 819.51 -93.4598L812.51 -99.8298C807.76 -104.01 802.99 -108.17 798.11 -112.22C788.38 -120.35 778.37 -128.22 767.87 -135.35C757.412 -142.624 746.429 -149.112 735.01 -154.76C727.863 -158.317 720.494 -161.41 712.95 -164.02C708.414 -165.67 703.769 -167.006 699.05 -168.02C660.18 -176.21 624.46 -158.58 591.43 -136.84C580.86 -129.84 570.55 -122.52 560.43 -114.99C540.14 -99.8998 520.48 -84.0498 500.43 -68.7298C485.05 -56.9198 470.33 -46.1998 454.27 -35.8098C448.37 -32.1698 453.27 -35.0098 442.18 -28.4198C430.69 -21.9498 419.4 -15.9098 403.69 -10.5998C402.27 -10.0698 395.69 -8.11977 394.69 -7.84977C391.5 -7.09977 387.83 -5.99977 380.84 -4.84977C380.23 -4.76977 374.41 -3.98979 373.84 -3.92979L366.76 -3.42979C392.54 -4.16979 416.11 -12.5898 438.76 -24.9098C449.826 -30.9922 460.567 -37.6479 470.94 -44.8498Z" fill="url(#paint14_linear_1616_1101)"/>
<path d="M1216.36 157.8C1213.85 159.8 1211.16 161.59 1208.52 163.43C1202.52 167.09 1202.64 167.3 1191.62 172.73C1185.75 175.379 1179.71 177.644 1173.55 179.51C1167.38 181.343 1161.09 182.793 1154.74 183.85C1148.38 184.886 1141.97 185.553 1135.54 185.85C1127.49 186.203 1119.43 185.966 1111.42 185.14C1090.57 183.109 1070.32 177.015 1051.81 167.2C1029.57 155.08 1008.42 137.87 990.12 120.52C953.36 85.6804 915.81 40.5203 885.23 5.05031C868.17 -14.6497 851.041 -34.3297 833.021 -53.2597C815.001 -72.1897 796.021 -90.3197 775.521 -106.58C742.861 -132.71 723.841 -139.82 716.961 -142.72C715.431 -143.36 713.85 -143.86 712.29 -144.43C704.444 -147.244 696.29 -149.114 688.001 -150C684.671 -150.15 681.331 -150.52 678.001 -150.36C677.171 -150.36 676.331 -150.36 675.501 -150.3C673.003 -150.187 670.513 -149.947 668.04 -149.58C642.431 -146.13 617.92 -132.14 596.311 -117.98C585.381 -110.79 574.81 -103.09 564.44 -95.1697C554.07 -87.2497 543.9 -79.0897 533.741 -70.9397C523.581 -62.7897 513.44 -54.5797 503.34 -46.3697C463.07 -13.7097 417.83 20.2903 365.96 21.0503C418.09 21.2903 463.901 -12.2097 504.871 -44.4597L520.161 -56.6397L535.48 -68.7397C545.72 -76.8097 555.95 -84.8597 566.34 -92.6697C576.73 -100.48 587.341 -108.03 598.211 -115.06C621.211 -129.82 646.411 -143.82 673.321 -145.91C680.971 -146.43 682.741 -145.97 687.581 -145.73C689.161 -145.54 690.73 -145.28 692.301 -145.06C693.882 -144.878 695.449 -144.587 696.991 -144.19C700.124 -143.58 703.217 -142.775 706.251 -141.78C708.111 -141.29 714.251 -139.01 715.251 -138.59C724.187 -134.954 732.795 -130.557 740.98 -125.45C751.947 -118.587 762.471 -111.042 772.491 -102.86C792.66 -86.5226 811.678 -68.8139 829.41 -49.8597C847.29 -31.0197 864.35 -11.3497 881.41 8.36031C911.41 43.1703 951.121 90.5503 986.841 124.01C1006 141.83 1026.54 158.44 1049.73 171C1073.08 183.48 1099.52 189.59 1125.84 189.75C1129.14 189.83 1132.43 189.64 1135.72 189.54C1142.3 189.182 1148.85 188.448 1155.34 187.34C1161.83 186.191 1168.25 184.651 1174.55 182.73C1186.5 178.73 1186.18 178.58 1192.98 175.62C1204.05 170.06 1204.06 169.78 1210.21 165.94C1220.14 158.94 1220.59 158.21 1225.73 153.71C1234.17 145.43 1237.28 141.92 1244.73 131.08C1259.51 108.81 1268.39 83.9304 1282.73 62.7804C1302.73 33.6204 1330.82 21.5404 1366.02 20.9604C1262.83 20.7304 1273.67 115.78 1216.36 157.8Z" fill="url(#paint15_linear_1616_1101)"/>
<path d="M1334.68 50.9507C1328.07 53.2107 1329.32 52.7607 1327.87 53.3707C1319.49 56.9107 1323.81 55.0907 1319.1 57.3707C1316.18 58.7307 1313.49 60.5207 1310.71 62.1407C1309.37 63.0307 1308.06 63.9707 1306.71 64.8807C1305.36 65.7705 1304.07 66.7389 1302.84 67.7807C1300.28 69.7311 1297.83 71.8314 1295.51 74.0707C1294.19 75.2107 1289.6 79.9607 1288.74 80.9607C1282.31 88.187 1276.62 96.0357 1271.74 104.391C1258.95 126.091 1246.41 150.781 1230.39 168.751C1226.21 173.512 1221.69 177.964 1216.87 182.071C1213.22 185.098 1209.39 187.906 1205.41 190.481C1204.08 191.321 1202.69 192.081 1201.33 192.891C1158.01 217.661 1100.58 220.371 1055.46 197.171C1044.1 191.476 1033.2 184.899 1022.87 177.501C1012.51 170.112 1002.54 162.187 993 153.761C983.42 145.351 974.14 136.571 965.06 127.581C913.67 76.6407 880.28 32.8507 834.28 -13.2193C816.13 -31.4093 797.1 -48.8294 776.59 -64.4394C774.08 -66.4394 771.44 -68.3094 768.81 -70.1794L760.95 -75.8094C685.58 -127.809 643.41 -115.599 566.5 -61.6094C545.5 -46.8994 525.1 -31.3194 504.32 -16.3594C493.96 -8.8494 483.46 -1.51939 472.73 5.45061C467.397 8.94394 461.97 12.3306 456.45 15.6106C450.93 18.8906 445.357 22.0206 439.73 25.0006C428.448 31.0252 416.626 35.9802 404.42 39.8006C392.19 43.6603 379.435 45.6033 366.61 45.5606C405.78 46.3106 444.16 28.8706 505.74 -14.3694C553.74 -48.1094 596.21 -82.3694 634.6 -96.7294C638.14 -98.0894 642.6 -99.5594 643.6 -99.8694C649.594 -101.809 655.734 -103.267 661.96 -104.229C663.52 -104.419 665.08 -104.539 666.63 -104.699C668.182 -104.894 669.746 -104.984 671.31 -104.969C674.441 -105.113 677.578 -105.047 680.7 -104.769C682.7 -104.769 689.03 -103.869 690.03 -103.659C693.13 -103.155 696.201 -102.488 699.23 -101.659C708.13 -99.5894 724.38 -93.4694 742.39 -82.4394C747.83 -79.1694 753.13 -75.6494 758.39 -72.0094L766 -66.3994C768.59 -64.5394 771.19 -62.6994 773.66 -60.6894C793.803 -45.0057 812.878 -27.9981 830.76 -9.7794C874.83 34.4506 910 80.0006 961.64 131.001C970.79 140.001 980.13 148.871 989.87 157.311C999.579 165.802 1009.72 173.783 1020.26 181.221C1030.81 188.697 1041.93 195.341 1053.52 201.091C1062.23 205.484 1071.35 209.001 1080.75 211.591C1123.08 222.971 1168.29 215.821 1202.94 195.591C1207.53 192.791 1204.62 194.811 1213.1 188.891C1226.58 178.101 1235.49 169.231 1249.58 147.111C1256.32 136.661 1266.15 118.001 1273.38 105.311C1280.25 93.7407 1282.8 90.4406 1289.85 81.9106C1290.69 80.9106 1295.18 76.1207 1296.44 75.0007C1299.29 72.2123 1302.29 69.5912 1305.44 67.1507C1312.74 61.5893 1320.74 57.0164 1329.24 53.5507L1336 51.1207C1344 48.8007 1342.48 49.2107 1344.08 48.8607C1351.09 47.167 1358.22 46.0632 1365.41 45.5607C1357.8 45.9526 1350.23 46.9964 1342.8 48.6807C1334.89 50.7907 1335.82 50.5607 1334.68 50.9507Z" fill="url(#paint16_linear_1616_1101)"/>
<path d="M1130.71 238.171C1089.12 242.321 1058.71 231.171 1024.93 209.501C1019.7 206.081 1014.56 202.524 1009.5 198.831C1004.5 195.101 999.5 191.291 994.65 187.321C984.92 179.421 975.48 171.141 966.23 162.631C961.61 158.381 957.05 154.051 952.49 149.741C900.65 99.0508 874.49 67.8808 833.65 28.0908C815.664 10.3054 796.754 -6.52124 777 -22.3192C756.84 -38.1192 735.45 -52.2592 711.68 -61.1692C710.21 -61.7892 708.68 -62.2192 707.16 -62.7492C701.99 -64.4192 705.42 -63.4592 697.97 -65.4992C696.435 -65.9605 694.876 -66.3377 693.3 -66.6292C690.178 -67.4027 687.008 -67.9606 683.81 -68.2992C678.95 -68.8492 683.58 -68.6193 674.17 -69.0193C672.56 -69.081 670.947 -69.0576 669.34 -68.9492C667.73 -68.8693 666.12 -68.8792 664.52 -68.7192C659.723 -68.3066 654.957 -67.5952 650.25 -66.5893C637.87 -63.5893 625.32 -60.1192 601.53 -47.4892C570.88 -31.1292 533.53 -4.76925 505.81 13.5107C495.32 20.5107 484.73 27.2807 473.93 33.7307C441.36 53.2407 406.06 70.9908 368.36 70.0308C411.75 72.0308 454.36 49.5007 507.14 15.5507C552.14 -13.4493 598.35 -46.8292 637.56 -59.1692C640.56 -60.0192 643.5 -61.0192 646.56 -61.6592C650.313 -62.6161 654.115 -63.3705 657.95 -63.9192C658.49 -63.9992 664.32 -64.5992 664.86 -64.6592C666.4 -64.7992 667.94 -64.7693 669.48 -64.8393C671.019 -64.9193 672.561 -64.9192 674.1 -64.8393C677.172 -64.7699 680.237 -64.5195 683.28 -64.0893C688.28 -63.3293 684.2 -64.2093 694.65 -61.9492L701.37 -60.0793C702.37 -59.7793 709.06 -57.5392 710.18 -57.0793C733.44 -48.2292 754.42 -34.1792 774.09 -18.6092C793.656 -2.85523 812.398 13.897 830.24 31.5808C869.78 70.2508 896.94 102.371 949.14 153.251C953.74 157.581 958.33 161.921 962.98 166.191C972.3 174.721 981.81 183.081 991.69 191.011C996.61 195.011 1001.69 198.821 1006.77 202.581C1046.54 231.431 1082.77 247.251 1131.11 242.001C1247.94 228.561 1250.7 143.631 1295.93 100.061C1314.19 82.3208 1338.4 73.4008 1363.64 70.0608C1338.13 72.9408 1313.85 81.3608 1295.02 99.1208C1248.22 142.841 1245.7 226.001 1130.71 238.171Z" fill="url(#paint17_linear_1616_1101)"/>
<path d="M1212.82 225.089C1210.49 227.089 1208.23 229.089 1205.82 230.979C1204.61 231.919 1203.44 232.899 1202.2 233.799C1195.79 238.409 1197.84 236.959 1194.68 239.029C1187.03 244.064 1178.88 248.296 1170.36 251.659C1151.82 258.955 1132.25 263.259 1112.36 264.409C1109.36 264.509 1106.27 264.669 1103.22 264.589C1094.08 264.545 1084.97 263.627 1076 261.849C1073 261.269 1074.55 261.619 1067.14 259.759C1026.56 247.259 996.64 223.819 965.88 198.099C963.51 196.099 961.22 194.099 958.88 192.099C956.54 190.099 954.24 188.099 951.95 185.999C947.4 181.849 942.77 177.779 938.3 173.539C887.29 125.999 830.65 62.6291 776.69 20.7491C757.12 5.51905 736.13 -8.25094 713.11 -18.0509C684.91 -29.9609 664.52 -30.921 639.51 -24.761C598.98 -14.581 551.3 17.2391 507.85 43.3391C465.65 68.6991 418.9 97.039 371.35 94.419C408.53 97.219 444.11 81.299 476.77 63.629C555.71 20.629 621.31 -30.611 676.47 -23.891C710.31 -20.0009 747 3.43903 773.78 24.469C830.3 69.089 880.25 126.329 935 177.099C939.5 181.349 944.16 185.429 948.73 189.599C951.04 191.669 953.4 193.679 955.73 195.719C958.06 197.759 960.37 199.819 962.73 201.779C967.49 205.779 972.21 209.779 977.06 213.629C981.91 217.479 986.82 221.289 991.81 224.989C1001.8 232.41 1012.21 239.241 1023 245.449C1033.84 251.684 1045.22 256.922 1057 261.099C1093.9 274.199 1135.53 269.209 1171.58 254.869C1178.82 251.912 1185.8 248.363 1192.45 244.259C1193.79 243.449 1195.06 242.549 1196.37 241.699C1202.86 237.372 1209.01 232.561 1214.78 227.309C1254.26 190.759 1263.71 153.689 1294.58 125.409C1313.05 108.409 1336.17 99.1791 1360.58 94.4091C1269.31 110.299 1269.95 173.179 1212.82 225.089Z" fill="url(#paint18_linear_1616_1101)"/>
<path d="M1215.1 238.36C1210.84 242.553 1206.35 246.506 1201.65 250.2C1199.26 252 1196.92 253.85 1194.44 255.52C1174.71 269.132 1152.36 278.49 1128.82 283C1087.98 291 1053.13 287.49 1016.29 267.58C1003.59 260.68 1006.65 262.41 1000.64 258.76C980.41 246.46 961.93 233.7 935.42 210.89C917.2 195.2 899.78 178.57 882.52 161.74C823.52 104.36 768.52 47.1698 705.76 21.5098C702.945 20.2961 700.072 19.2247 697.15 18.2997C695.71 17.7631 694.241 17.3091 692.75 16.9398C689.795 16.0349 686.79 15.3037 683.75 14.7498C629.53 3.52975 575.59 37.6497 510.59 73.4097C459.07 101.92 417.44 121.74 375.47 118.6C387.519 119.683 399.66 119.074 411.54 116.79C497.19 100.2 595.74 8.66973 669.75 16.9697C682.75 18.2597 692.75 20.1598 712.29 29.0798C768.6 54.8698 820.58 108.27 879 165.31C896.3 182.15 913.84 198.82 932.21 214.58C950.58 230.34 969.79 245.26 990.41 258.09C1005.41 267.09 1000.61 264.43 1018.15 273.79C1026.34 277.912 1034.85 281.376 1043.59 284.15C1072.16 293.37 1100.23 292.81 1129.59 286.76C1153.41 281.81 1176.42 272.28 1196.25 258.1C1198.76 256.37 1201.14 254.46 1203.55 252.61C1215.94 242.25 1225.35 233.61 1246.01 205.38C1253.11 195.62 1260.01 185.76 1267.51 176.38C1271.68 171.02 1276.97 164.93 1279.2 162.67C1283.3 158.288 1287.67 154.166 1292.29 150.33C1310.7 134.84 1333.07 124.39 1356.47 118.64C1273.15 138.21 1262.15 190.56 1215.1 238.36Z" fill="url(#paint19_linear_1616_1101)"/>
<path d="M1091.17 307.81C1079.88 309.13 1067.79 309.63 1056.5 308.22C995.73 300.86 925.42 241.36 879.78 199.91C823.57 148.91 771.41 96.1698 714.36 68.1098C706.364 64.176 698.139 60.7264 689.73 57.7798C683.705 55.7158 677.511 54.1833 671.22 53.1998C664.64 52.4098 664.48 52.3698 663.41 52.3198C657.449 51.8571 651.461 51.8571 645.5 52.3198C644.16 52.3698 637.71 53.0898 636.61 53.3198C627.797 54.6216 619.102 56.628 610.61 59.3198C552.14 77.6898 476.14 130.27 415.97 141.14C404.411 143.279 392.61 143.791 380.91 142.66C392.615 144.041 404.457 143.778 416.09 141.88C465.9 133.76 525.31 98.2098 578.83 75.0298C606.01 63.1598 621.01 59.5298 637.14 57.0298C638.21 56.8598 644.51 56.2198 645.79 56.1898C653.719 55.6636 661.682 55.9989 669.54 57.1898C673.102 57.7373 676.634 58.4717 680.12 59.3898C685.2 60.7898 680.86 59.3898 690.44 62.5698C693.28 63.6798 703.01 67.3498 712.44 72.1298C752.6 92.1298 791.19 125.69 824.54 155.94C841.91 171.74 859.01 187.87 876.43 203.71C893.85 219.55 911.66 235.01 930.31 249.48C956.31 269.64 990.63 292.6 1021.31 304.04C1052.51 315.7 1076.46 315.43 1109.19 309.29C1114.98 308.18 1120.79 307 1126.54 305.5C1149.63 299.717 1171.4 289.531 1190.63 275.5C1200.11 268.4 1208.96 260.483 1217.06 251.84C1250.33 216.97 1268.58 180.84 1318.41 155.64C1328.9 150.351 1339.84 146 1351.1 142.64C1224.64 177.59 1245.19 290 1091.17 307.81Z" fill="url(#paint20_linear_1616_1101)"/>
<path d="M1256.34 217.569C1218.18 252.829 1192.75 296.569 1121.81 318.469C1077.76 331.699 1030.38 331.639 989.36 313.059C960.16 299.739 938.15 284.369 926.95 276.699C918.95 271.179 905.28 260.609 903.01 258.869C898.56 255.329 894.1 251.789 889.68 248.199C885.26 244.609 880.87 240.979 876.53 237.279C859.08 222.619 841.98 207.489 824.68 192.549L811.68 181.399L798.51 170.399C789.68 163.139 780.78 155.929 771.66 148.989C739.33 124.329 689.28 91.3594 648.43 90.6494C581.79 89.4994 492.98 155.299 421.53 165.799C410.239 167.496 398.768 167.634 387.44 166.209C398.767 167.887 410.271 168.002 421.63 166.549C493.82 157.239 583.32 92.6893 648.34 94.4793C699.01 95.8593 762.69 147.089 795.44 174.119L808.54 185.119L821.54 196.269C838.78 211.209 855.87 226.379 873.37 241.129C908.03 270.309 945.65 298.559 987.47 317.399C1029.7 336.269 1078.6 336.109 1123 322.139C1208.57 294.749 1227.72 237.229 1283.87 197.139C1302.49 183.904 1322.96 173.498 1344.63 166.259C1322.71 172.987 1301.95 183.016 1283.06 195.999C1273.65 202.543 1264.72 209.752 1256.34 217.569Z" fill="url(#paint21_linear_1616_1101)"/>
<path d="M1277.31 218.571C1217.25 257.121 1194.12 306.811 1116.87 332.931C1101.27 338.144 1085.19 341.802 1068.87 343.851C1005.68 351.231 971.46 333.001 957 326.531C941.82 318.951 917.48 307.261 873.29 273.931C838.06 247.371 804.75 218.151 769.22 191.581C751.46 178.321 733.15 165.641 713.71 154.771C644.86 116.301 619.35 124.561 523.04 161.771C512.74 165.771 502.42 169.771 492.04 173.431C472.39 180.331 458.7 184.921 438.37 188.771C424.26 190.961 418.91 191.191 407.47 190.881C403.331 190.635 399.208 190.168 395.12 189.481L399.21 190.161C434.43 196.041 477.21 181.391 523.93 164.051C573.93 145.401 615.39 128.791 650.93 134.331C688.52 140.111 735.93 172.331 766.36 195.331C828.83 242.391 878.36 291.901 947.44 327.141C968.2 337.461 977.44 340.461 986.19 342.971C1026.59 354.421 1074.19 351.691 1118.08 336.541C1196.31 309.221 1219.24 258.841 1278 219.681C1287.2 213.571 1296.75 208.002 1306.6 203.001C1316.43 197.952 1326.55 193.465 1336.89 189.561C1326.45 193.239 1316.22 197.499 1306.26 202.321C1296.3 207.175 1286.64 212.601 1277.31 218.571Z" fill="url(#paint22_linear_1616_1101)"/>
<path d="M1111.32 346.271C1106.32 347.951 1101.32 349.781 1096.16 351.161C1093.61 351.881 1091.08 352.691 1088.5 353.331C1075.87 356.411 1079.35 355.611 1072.99 356.901C1070.39 357.401 1067.8 357.991 1065.18 358.421C1049.4 360.761 1040.74 362.291 1017.7 362.421C1012.41 362.231 1007.1 362.251 1001.83 361.721C995.58 361.231 995.1 361.211 993.92 361.041C978.47 359.041 986.05 360.041 978.25 358.671C972.76 357.671 971.93 357.511 970.5 357.101C965.39 355.751 960.24 354.581 955.25 352.831C907.38 338.221 856.62 299.291 818.82 271.471C801.55 258.851 784.41 246.061 766.93 233.681C758.19 227.494 749.35 221.431 740.41 215.491C731.46 209.561 722.41 203.881 713.25 198.281C684.02 180.701 669.25 175.351 654.54 171.521C605.08 159.701 559.66 182.121 498.27 201.441C468.16 210.841 435.15 219.091 403.94 212.441C435.18 219.901 468.11 212.271 498.81 203.271C542.15 190.461 562.6 181.561 590.81 175.691C612.81 171.121 625.67 171.761 632.18 171.971C633.24 171.971 633.1 171.971 638.08 172.481C644.621 173.158 651.085 174.436 657.39 176.301C676.35 181.701 695.69 192.671 711 202.001C720 207.621 729.08 213.341 737.93 219.271C746.78 225.201 755.54 231.271 764.22 237.511C781.57 249.951 798.73 262.721 815.96 275.391C857.34 305.961 882.74 325.391 923.69 345.551C933.46 350.162 943.521 354.127 953.81 357.421C958.92 359.201 964.21 360.421 969.45 361.761C970.768 362.111 972.103 362.395 973.45 362.611C982.31 364.271 983.45 364.501 985.45 364.701C997.16 366.141 994 365.781 997.52 366.051C1011.52 367.051 1005.2 366.591 1017.73 366.971C1028.52 366.955 1039.3 366.287 1050.01 364.971C1083.01 361.201 1117.44 349.971 1142.23 336.831C1147.08 334.491 1151.68 331.671 1156.37 329.041C1158.68 327.661 1160.92 326.161 1163.2 324.731C1210.48 294.581 1233.48 259.261 1299.01 225.781C1308.51 220.901 1318.21 216.427 1328.12 212.361C1318.12 216.194 1308.3 220.441 1298.67 225.101C1211.48 267.621 1198.71 313.891 1111.32 346.271Z" fill="url(#paint23_linear_1616_1101)"/>
<defs>
<linearGradient id="paint0_linear_1616_1101" x1="324.965" y1="189.52" x2="324.965" y2="340.658" gradientUnits="userSpaceOnUse">
<stop stop-opacity="0.19"/>
<stop offset="1" stop-opacity="0"/>
</linearGradient>
<linearGradient id="paint1_linear_1616_1101" x1="324.99" y1="144.416" x2="324.99" y2="318.804" gradientUnits="userSpaceOnUse">
<stop stop-opacity="0.19"/>
<stop offset="1" stop-opacity="0"/>
</linearGradient>
<linearGradient id="paint2_linear_1616_1101" x1="325" y1="96.2383" x2="325" y2="297.203" gradientUnits="userSpaceOnUse">
<stop stop-opacity="0.19"/>
<stop offset="1" stop-opacity="0"/>
</linearGradient>
<linearGradient id="paint3_linear_1616_1101" x1="324.975" y1="47.1016" x2="324.975" y2="275.928" gradientUnits="userSpaceOnUse">
<stop stop-opacity="0.19"/>
<stop offset="1" stop-opacity="0"/>
</linearGradient>
<linearGradient id="paint4_linear_1616_1101" x1="324.995" y1="-1.9043" x2="324.995" y2="254.801" gradientUnits="userSpaceOnUse">
<stop stop-opacity="0.19"/>
<stop offset="1" stop-opacity="0"/>
</linearGradient>
<linearGradient id="paint5_linear_1616_1101" x1="325.035" y1="-51.1484" x2="325.035" y2="233.652" gradientUnits="userSpaceOnUse">
<stop stop-opacity="0.19"/>
<stop offset="1" stop-opacity="0"/>
</linearGradient>
<linearGradient id="paint6_linear_1616_1101" x1="324.91" y1="-100.33" x2="324.91" y2="212.065" gradientUnits="userSpaceOnUse">
<stop stop-opacity="0.19"/>
<stop offset="1" stop-opacity="0"/>
</linearGradient>
<linearGradient id="paint7_linear_1616_1101" x1="325.01" y1="-147.77" x2="325.01" y2="192.399" gradientUnits="userSpaceOnUse">
<stop stop-opacity="0.19"/>
<stop offset="1" stop-opacity="0"/>
</linearGradient>
<linearGradient id="paint8_linear_1616_1101" x1="324.99" y1="-175.002" x2="324.99" y2="151.067" gradientUnits="userSpaceOnUse">
<stop stop-opacity="0.19"/>
<stop offset="1" stop-opacity="0"/>
</linearGradient>
<linearGradient id="paint9_linear_1616_1101" x1="325" y1="-200.998" x2="325" y2="111.053" gradientUnits="userSpaceOnUse">
<stop stop-opacity="0.19"/>
<stop offset="1" stop-opacity="0"/>
</linearGradient>
<linearGradient id="paint10_linear_1616_1101" x1="325.035" y1="-226.695" x2="325.035" y2="70.4921" gradientUnits="userSpaceOnUse">
<stop stop-opacity="0.19"/>
<stop offset="1" stop-opacity="0"/>
</linearGradient>
<linearGradient id="paint11_linear_1616_1101" x1="325.03" y1="-249.207" x2="325.03" y2="29.4238" gradientUnits="userSpaceOnUse">
<stop stop-opacity="0.19"/>
<stop offset="1" stop-opacity="0"/>
</linearGradient>
<linearGradient id="paint12_linear_1616_1101" x1="866.005" y1="43.9043" x2="866.005" y2="-212.801" gradientUnits="userSpaceOnUse">
<stop stop-opacity="0.33"/>
<stop offset="1" stop-opacity="0"/>
</linearGradient>
<linearGradient id="paint13_linear_1616_1101" x1="865.965" y1="93.1484" x2="865.965" y2="-191.652" gradientUnits="userSpaceOnUse">
<stop stop-opacity="0.33"/>
<stop offset="1" stop-opacity="0"/>
</linearGradient>
<linearGradient id="paint14_linear_1616_1101" x1="866.09" y1="142.33" x2="866.09" y2="-170.065" gradientUnits="userSpaceOnUse">
<stop stop-opacity="0.33"/>
<stop offset="1" stop-opacity="0"/>
</linearGradient>
<linearGradient id="paint15_linear_1616_1101" x1="865.99" y1="189.769" x2="865.991" y2="-150.399" gradientUnits="userSpaceOnUse">
<stop stop-opacity="0.33"/>
<stop offset="1" stop-opacity="0"/>
</linearGradient>
<linearGradient id="paint16_linear_1616_1101" x1="866.01" y1="217.002" x2="866.01" y2="-109.067" gradientUnits="userSpaceOnUse">
<stop stop-opacity="0.33"/>
<stop offset="1" stop-opacity="0"/>
</linearGradient>
<linearGradient id="paint17_linear_1616_1101" x1="866" y1="242.998" x2="866" y2="-69.0528" gradientUnits="userSpaceOnUse">
<stop stop-opacity="0.33"/>
<stop offset="1" stop-opacity="0"/>
</linearGradient>
<linearGradient id="paint18_linear_1616_1101" x1="865.965" y1="268.695" x2="865.965" y2="-28.4921" gradientUnits="userSpaceOnUse">
<stop stop-opacity="0.33"/>
<stop offset="1" stop-opacity="0"/>
</linearGradient>
<linearGradient id="paint19_linear_1616_1101" x1="865.97" y1="291.207" x2="865.97" y2="12.5762" gradientUnits="userSpaceOnUse">
<stop stop-opacity="0.33"/>
<stop offset="1" stop-opacity="0"/>
</linearGradient>
<linearGradient id="paint20_linear_1616_1101" x1="866.005" y1="313.473" x2="866.005" y2="51.9728" gradientUnits="userSpaceOnUse">
<stop stop-opacity="0.33"/>
<stop offset="1" stop-opacity="0"/>
</linearGradient>
<linearGradient id="paint21_linear_1616_1101" x1="866.035" y1="332.144" x2="866.035" y2="90.6345" gradientUnits="userSpaceOnUse">
<stop stop-opacity="0.33"/>
<stop offset="1" stop-opacity="0"/>
</linearGradient>
<linearGradient id="paint22_linear_1616_1101" x1="866.005" y1="350.025" x2="866.005" y2="129.605" gradientUnits="userSpaceOnUse">
<stop stop-opacity="0.33"/>
<stop offset="1" stop-opacity="0"/>
</linearGradient>
<linearGradient id="paint23_linear_1616_1101" x1="866.03" y1="366.971" x2="866.03" y2="168.235" gradientUnits="userSpaceOnUse">
<stop stop-opacity="0.33"/>
<stop offset="1" stop-opacity="0"/>
</linearGradient>
</defs>
</svg>
