<svg width="80" height="80" viewBox="0 0 80 80" fill="none" xmlns="http://www.w3.org/2000/svg">
<path d="M40.2083 6.88181C39.243 6.45855 38.292 6.75465 37.6803 7.37761C37.0863 7.98275 36.789 8.90631 36.9973 9.83751C37.3263 11.3073 37.5 12.8365 37.5 14.4072C37.5 17.9933 36.5963 20.505 35.041 22.5872C33.46 24.7038 31.1716 26.427 28.2822 28.3713C28.2368 28.4018 28.1945 28.4368 28.1559 28.4756L27.806 28.8283C21.6065 32.8335 17.5 39.8073 17.5 47.7406C17.5 60.167 27.5736 70.2406 40 70.2406C52.4263 70.2406 62.5 60.167 62.5 47.7406C62.5 44.0919 61.631 40.6439 60.088 37.5946C59.9623 37.3466 59.7213 37.1776 59.4453 37.1436C59.1693 37.1099 58.8947 37.2163 58.7133 37.4266C58.4783 37.6993 58.248 37.9683 58.0213 38.2333C55.0937 41.6536 52.731 44.4143 47.8873 45.6473C47.6813 45.6996 47.5533 45.6606 47.4623 45.6039C47.3557 45.5373 47.2387 45.4039 47.1587 45.1909C46.9917 44.7473 47.0633 44.1813 47.4053 43.8106C49.996 41.0019 51.8363 37.1893 52.494 31.7654C53.7257 21.6058 49.1083 10.7838 40.2083 6.88181Z" fill="#158FFF"/>
</svg>
