<svg width="108" height="22" viewBox="0 0 108 22" fill="none" xmlns="http://www.w3.org/2000/svg">
<path d="M9.707 4.21292C10.0281 3.2246 11.4263 3.2246 11.7474 4.21292L12.8948 7.74412C13.0384 8.1861 13.4503 8.48535 13.915 8.48535H17.6279C18.6671 8.48535 19.0992 9.81512 18.2585 10.4259L15.2547 12.6083C14.8787 12.8815 14.7214 13.3657 14.865 13.8077L16.0123 17.3389C16.3335 18.3272 15.2023 19.149 14.3616 18.5382L11.3578 16.3558C10.9818 16.0827 10.4727 16.0827 10.0967 16.3558L7.09287 18.5382C6.25216 19.149 5.12099 18.3272 5.44211 17.3389L6.58947 13.8077C6.73308 13.3657 6.57575 12.8815 6.19978 12.6083L3.19596 10.4259C2.35525 9.81512 2.78732 8.48535 3.82649 8.48535H7.53942C8.00415 8.48535 8.41603 8.1861 8.55964 7.74412L9.707 4.21292Z" fill="url(#paint0_linear_1135_1670)"/>
<path d="M31.1616 4.21292C31.4827 3.2246 32.8809 3.2246 33.202 4.21292L34.3494 7.74412C34.493 8.1861 34.9049 8.48535 35.3696 8.48535H39.0825C40.1217 8.48535 40.5538 9.81512 39.7131 10.4259L36.7093 12.6083C36.3333 12.8815 36.176 13.3657 36.3196 13.8077L37.4669 17.3389C37.788 18.3272 36.6569 19.149 35.8162 18.5382L32.8123 16.3558C32.4364 16.0827 31.9273 16.0827 31.5513 16.3558L28.5475 18.5382C27.7067 19.149 26.5756 18.3272 26.8967 17.3389L28.0441 13.8077C28.1877 13.3657 28.0303 12.8815 27.6544 12.6083L24.6505 10.4259C23.8098 9.81512 24.2419 8.48535 25.2811 8.48535H28.994C29.4587 8.48535 29.8706 8.1861 30.0142 7.74412L31.1616 4.21292Z" fill="url(#paint1_linear_1135_1670)"/>
<path d="M52.6162 4.21292C52.9373 3.2246 54.3355 3.2246 54.6566 4.21292L55.804 7.74412C55.9476 8.1861 56.3595 8.48535 56.8242 8.48535H60.5371C61.5763 8.48535 62.0084 9.81512 61.1677 10.4259L58.1638 12.6083C57.7879 12.8815 57.6305 13.3657 57.7742 13.8077L58.9215 17.3389C59.2426 18.3272 58.1115 19.149 57.2708 18.5382L54.2669 16.3558C53.891 16.0827 53.3818 16.0827 53.0059 16.3558L50.002 18.5382C49.1613 19.149 48.0302 18.3272 48.3513 17.3389L49.4986 13.8077C49.6423 13.3657 49.4849 12.8815 49.109 12.6083L46.1051 10.4259C45.2644 9.81512 45.6965 8.48535 46.7357 8.48535H50.4486C50.9133 8.48535 51.3252 8.1861 51.4688 7.74412L52.6162 4.21292Z" fill="url(#paint2_linear_1135_1670)"/>
<path d="M74.0705 4.21292C74.3916 3.2246 75.7898 3.2246 76.111 4.21292L77.2583 7.74412C77.4019 8.1861 77.8138 8.48535 78.2786 8.48535H81.9915C83.0306 8.48535 83.4627 9.81512 82.622 10.4259L79.6182 12.6083C79.2422 12.8815 79.0849 13.3657 79.2285 13.8077L80.3759 17.3389C80.697 18.3272 79.5658 19.149 78.7251 18.5382L75.7213 16.3558C75.3453 16.0827 74.8362 16.0827 74.4602 16.3558L71.4564 18.5382C70.6157 19.149 69.4845 18.3272 69.8056 17.3389L70.953 13.8077C71.0966 13.3657 70.9393 12.8815 70.5633 12.6083L67.5595 10.4259C66.7188 9.81512 67.1508 8.48535 68.19 8.48535H71.9029C72.3677 8.48535 72.7796 8.1861 72.9232 7.74412L74.0705 4.21292Z" fill="url(#paint3_linear_1135_1670)"/>
<path opacity="0.2" d="M95.5251 4.21292C95.8462 3.2246 97.2444 3.2246 97.5656 4.21292L98.7129 7.74412C98.8565 8.1861 99.2684 8.48535 99.7331 8.48535H103.446C104.485 8.48535 104.917 9.81512 104.077 10.4259L101.073 12.6083C100.697 12.8815 100.539 13.3657 100.683 13.8077L101.83 17.3389C102.152 18.3272 101.02 19.149 100.18 18.5382L97.1759 16.3558C96.7999 16.0827 96.2908 16.0827 95.9148 16.3558L92.911 18.5382C92.0703 19.149 90.9391 18.3272 91.2602 17.3389L92.4076 13.8077C92.5512 13.3657 92.3939 12.8815 92.0179 12.6083L89.0141 10.4259C88.1734 9.81512 88.6054 8.48535 89.6446 8.48535H93.3575C93.8223 8.48535 94.2341 8.1861 94.3778 7.74412L95.5251 4.21292Z" fill="#E1E6EA"/>
<path d="M95.5254 4.21292C95.8465 3.2246 97.2447 3.2246 97.5658 4.21292L98.7132 7.74412C98.8568 8.1861 99.2687 8.48535 99.7334 8.48535H103.446C104.485 8.48535 104.918 9.81512 104.077 10.4259L101.073 12.6083C100.697 12.8815 100.54 13.3657 100.683 13.8077L101.831 17.3389C102.152 18.3272 101.021 19.149 100.18 18.5382L97.1761 16.3558C96.8001 16.0827 96.291 16.0827 95.915 16.3558L92.9112 18.5382C92.0705 19.149 90.9393 18.3272 91.2605 17.3389L92.4078 13.8077C92.5514 13.3657 92.3941 12.8815 92.0181 12.6083L89.0143 10.4259C88.1736 9.81512 88.6057 8.48535 89.6449 8.48535H93.3578C93.8225 8.48535 94.2344 8.1861 94.378 7.74412L95.5254 4.21292Z" fill="url(#paint4_linear_1135_1670)"/>
<defs>
<linearGradient id="paint0_linear_1135_1670" x1="10.7272" y1="3.47168" x2="10.7272" y2="18.748" gradientUnits="userSpaceOnUse">
<stop stop-color="#BCC1CB"/>
<stop offset="0.0001" stop-color="#EC8E00"/>
<stop offset="1" stop-color="#F7AD3E"/>
</linearGradient>
<linearGradient id="paint1_linear_1135_1670" x1="32.1818" y1="3.47168" x2="32.1818" y2="18.748" gradientUnits="userSpaceOnUse">
<stop stop-color="#BCC1CB"/>
<stop offset="0.0001" stop-color="#EC8E00"/>
<stop offset="1" stop-color="#F7AD3E"/>
</linearGradient>
<linearGradient id="paint2_linear_1135_1670" x1="53.6364" y1="3.47168" x2="53.6364" y2="18.748" gradientUnits="userSpaceOnUse">
<stop stop-color="#BCC1CB"/>
<stop offset="0.0001" stop-color="#EC8E00"/>
<stop offset="1" stop-color="#F7AD3E"/>
</linearGradient>
<linearGradient id="paint3_linear_1135_1670" x1="75.0907" y1="3.47168" x2="75.0907" y2="18.748" gradientUnits="userSpaceOnUse">
<stop stop-color="#BCC1CB"/>
<stop offset="0.0001" stop-color="#EC8E00"/>
<stop offset="1" stop-color="#F7AD3E"/>
</linearGradient>
<linearGradient id="paint4_linear_1135_1670" x1="89.1365" y1="9.00024" x2="101.5" y2="9.00024" gradientUnits="userSpaceOnUse">
<stop offset="0.628273" stop-color="#EC8E00"/>
<stop offset="1" stop-color="#F7AD3E" stop-opacity="0"/>
</linearGradient>
</defs>
</svg>
